<?xml version="1.0" standalone="no"?><!DOCTYPE svg PUBLIC "-//W3C//DTD SVG 1.1//EN" "http://www.w3.org/Graphics/SVG/1.1/DTD/svg11.dtd"><svg t="1503394223886" class="icon" style="" viewBox="0 0 1024 1024" version="1.1" xmlns="http://www.w3.org/2000/svg" p-id="1962" xmlns:xlink="http://www.w3.org/1999/xlink" width="200" height="200"><defs><style type="text/css"></style></defs><path d="M703.232 870.144l145.088 15.872c16.32 1.728 28.16 16.512 26.368 32.896-1.664 15.232-14.592 26.56-29.568 26.56-1.152 0-2.112-0.064-3.264-0.192l-208.704-22.848c-7.872-0.896-15.04-4.8-19.968-11.008-4.992-6.144-7.232-14.016-6.464-21.888l22.848-209.024c1.792-16.384 16.448-28.224 32.832-26.432s28.096 16.576 26.368 32.96l-14.4 131.136c111.744-61.632 187.648-180.48 187.648-317.312 0-200.192-162.112-362.624-362.048-362.624-1.856 0-3.584 0.256-5.44 0.256l0-0.64C480 135.936 468.672 123.584 468.672 108.416c0-14.912 10.944-27.136 25.216-29.312L493.888 78.912c1.024 0 1.984-0.064 2.88-0.128 0.576 0 1.088-0.192 1.664-0.192 0.192 0 0.384 0.064 0.512 0.064 0.384-0.064 0.768-0.064 1.152-0.064 232.384 0 421.504 189.376 421.504 422.208C921.6 659.776 833.28 798.144 703.232 870.144L703.232 870.144zM499.712 945.024l0 0.128c-1.024 0-1.92 0.128-2.88 0.128-0.576 0-1.088 0.192-1.664 0.192-0.192 0-0.32-0.064-0.512-0.064-0.384 0-0.768 0.064-1.152 0.064-232.448 0-421.504-189.44-421.504-422.208 0-158.976 88.384-297.344 218.304-369.28L145.28 138.048C128.96 136.256 117.12 121.536 118.848 105.152c1.664-15.232 14.592-26.56 29.568-26.56 1.088 0 2.176 0.064 3.264 0.192l208.64 22.848C368.256 102.528 375.424 106.496 380.352 112.64c4.992 6.208 7.232 14.08 6.4 21.952L363.904 343.552C362.112 359.936 347.456 371.776 331.072 369.984 314.688 368.128 302.976 353.408 304.768 337.088l14.336-131.2C207.36 267.584 131.52 386.368 131.52 523.2c0 200.256 162.048 362.688 361.984 362.688 1.856 0 3.584-0.32 5.44-0.384l0 0.704c14.656 1.92 25.92 14.336 25.92 29.44C524.864 930.496 513.92 942.72 499.712 945.024L499.712 945.024z" p-id="1963" fill="#D96D00"></path></svg>